# xmcd
#
# Track frame offsets: 
#        150
#        15770
#        30790
#        48152
#        63497
#        73602
#        89447
#        105462
#        121367
#        141417
#        156575
#        172012
#        185635
#        205987
#
# Disc length: 2930 seconds
#
# Revision: 0
# Processed by: cddbd v1.5.1PL2 Copyright (c) Steve Scherf et al.
# Submitted via: ExactAudioCopy v0.95b3
#
DISCID=be0b700e
DTITLE=Fernando Mendes - Para Sempre
DYEAR=2001
DGENRE=Brega
TTITLE0=Cadeira de rodas
TTITLE1=A desconhecida
TTITLE2=Você não me ensinou a te esquecer
TTITLE3=Recordações
TTITLE4=Você não pode proibir
TTITLE5=Sorte tem quem acredita nela
TTITLE6=O internato
TTITLE7=Menina do subúrbio
TTITLE8=Voa pombinha
TTITLE9=A menina da calçada
TTITLE10=Eu queria dizer que te amo numa canção
TTITLE11=Menina da platéia
TTITLE12=Roda gigante
TTITLE13=Menina
EXTD=
EXTT0=
EXTT1=
EXTT2=
EXTT3=
EXTT4=
EXTT5=
EXTT6=
EXTT7=
EXTT8=
EXTT9=
EXTT10=
EXTT11=
EXTT12=
EXTT13=
PLAYORDER=
